<svg id="Layer_1" data-name="Layer 1" xmlns="http://www.w3.org/2000/svg" viewBox="0 0 24 24"><defs><style>.cls-1{fill:#333;}</style></defs><title>icon-share-link</title><path class="cls-1" d="M22.4,1.6a5.47,5.47,0,0,0-7.73,0L8.92,7.35a5.47,5.47,0,0,0,0,7.73l2.32-2.32a2.19,2.19,0,0,1,0-3.09L17,3.92A2.18,2.18,0,0,1,20.08,7L18,9.13a7.57,7.57,0,0,1,.93,3.64v.07L22.4,9.33A5.47,5.47,0,0,0,22.4,1.6Z"/><path class="cls-1" d="M1.6,22.4a5.47,5.47,0,0,0,7.73,0l5.73-5.73a5.46,5.46,0,0,0,0-7.73l-2.31,2.32a2.19,2.19,0,0,1,0,3.09L7,20.08A2.18,2.18,0,0,1,3.92,17L6,14.88a7.57,7.57,0,0,1-.93-3.64v-.07l-3.5,3.5A5.47,5.47,0,0,0,1.6,22.4Z"/></svg>